<mxfile host="app.diagrams.net" modified="2022-03-09T17:15:08.995Z" agent="5.0 (Macintosh; Intel Mac OS X 10_15_7) AppleWebKit/537.36 (KHTML, like Gecko) Chrome/98.0.4758.109 Safari/537.36" etag="Xg_Twc4nNWUzrSwnfSFy" version="16.6.5" type="github">
  <diagram id="RN-FkS96e6hhWfDB8mtt" name="Page-1">
    <mxGraphModel dx="485" dy="331" grid="1" gridSize="10" guides="1" tooltips="1" connect="1" arrows="1" fold="1" page="1" pageScale="1" pageWidth="827" pageHeight="1169" math="0" shadow="0">
      <root>
        <mxCell id="0" />
        <mxCell id="1" parent="0" />
        <mxCell id="sfJVFUZ6SmEvr22V_r6v-1" value="" style="ellipse;whiteSpace=wrap;html=1;aspect=fixed;fillColor=#d5e8d4;strokeColor=#82b366;" vertex="1" parent="1">
          <mxGeometry x="200" y="120" width="40" height="40" as="geometry" />
        </mxCell>
        <mxCell id="sfJVFUZ6SmEvr22V_r6v-2" value="" style="ellipse;whiteSpace=wrap;html=1;aspect=fixed;fillColor=#d5e8d4;strokeColor=#82b366;" vertex="1" parent="1">
          <mxGeometry x="120" y="200" width="40" height="40" as="geometry" />
        </mxCell>
        <mxCell id="sfJVFUZ6SmEvr22V_r6v-3" value="" style="ellipse;whiteSpace=wrap;html=1;aspect=fixed;fillColor=#d5e8d4;strokeColor=#82b366;" vertex="1" parent="1">
          <mxGeometry x="280" y="200" width="40" height="40" as="geometry" />
        </mxCell>
        <mxCell id="sfJVFUZ6SmEvr22V_r6v-4" value="" style="ellipse;whiteSpace=wrap;html=1;aspect=fixed;fillColor=#d5e8d4;strokeColor=#82b366;" vertex="1" parent="1">
          <mxGeometry x="120" y="280" width="40" height="40" as="geometry" />
        </mxCell>
        <mxCell id="sfJVFUZ6SmEvr22V_r6v-5" value="" style="ellipse;whiteSpace=wrap;html=1;aspect=fixed;fillColor=#d5e8d4;strokeColor=#82b366;" vertex="1" parent="1">
          <mxGeometry x="280" y="280" width="40" height="40" as="geometry" />
        </mxCell>
        <mxCell id="sfJVFUZ6SmEvr22V_r6v-6" value="" style="endArrow=none;html=1;rounded=0;entryX=0;entryY=1;entryDx=0;entryDy=0;exitX=1;exitY=0;exitDx=0;exitDy=0;" edge="1" parent="1" source="sfJVFUZ6SmEvr22V_r6v-2" target="sfJVFUZ6SmEvr22V_r6v-1">
          <mxGeometry width="50" height="50" relative="1" as="geometry">
            <mxPoint x="90" y="165" as="sourcePoint" />
            <mxPoint x="140" y="115" as="targetPoint" />
          </mxGeometry>
        </mxCell>
        <mxCell id="sfJVFUZ6SmEvr22V_r6v-13" value="1" style="edgeLabel;html=1;align=center;verticalAlign=middle;resizable=0;points=[];" vertex="1" connectable="0" parent="sfJVFUZ6SmEvr22V_r6v-6">
          <mxGeometry x="0.002" relative="1" as="geometry">
            <mxPoint as="offset" />
          </mxGeometry>
        </mxCell>
        <mxCell id="sfJVFUZ6SmEvr22V_r6v-7" value="" style="endArrow=none;html=1;rounded=0;entryX=1;entryY=1;entryDx=0;entryDy=0;exitX=0;exitY=0;exitDx=0;exitDy=0;" edge="1" parent="1" source="sfJVFUZ6SmEvr22V_r6v-3" target="sfJVFUZ6SmEvr22V_r6v-1">
          <mxGeometry width="50" height="50" relative="1" as="geometry">
            <mxPoint x="164.14213562373095" y="215.85786437626905" as="sourcePoint" />
            <mxPoint x="215.85786437626916" y="164.14213562373078" as="targetPoint" />
          </mxGeometry>
        </mxCell>
        <mxCell id="sfJVFUZ6SmEvr22V_r6v-14" value="7" style="edgeLabel;html=1;align=center;verticalAlign=middle;resizable=0;points=[];" vertex="1" connectable="0" parent="sfJVFUZ6SmEvr22V_r6v-7">
          <mxGeometry x="0.1359" relative="1" as="geometry">
            <mxPoint as="offset" />
          </mxGeometry>
        </mxCell>
        <mxCell id="sfJVFUZ6SmEvr22V_r6v-8" value="" style="endArrow=none;html=1;rounded=0;exitX=0.5;exitY=1;exitDx=0;exitDy=0;entryX=0.5;entryY=0;entryDx=0;entryDy=0;" edge="1" parent="1" source="sfJVFUZ6SmEvr22V_r6v-2" target="sfJVFUZ6SmEvr22V_r6v-4">
          <mxGeometry width="50" height="50" relative="1" as="geometry">
            <mxPoint x="280" y="230" as="sourcePoint" />
            <mxPoint x="330" y="180" as="targetPoint" />
          </mxGeometry>
        </mxCell>
        <mxCell id="sfJVFUZ6SmEvr22V_r6v-16" value="4" style="edgeLabel;html=1;align=center;verticalAlign=middle;resizable=0;points=[];" vertex="1" connectable="0" parent="sfJVFUZ6SmEvr22V_r6v-8">
          <mxGeometry x="-0.05" y="1" relative="1" as="geometry">
            <mxPoint as="offset" />
          </mxGeometry>
        </mxCell>
        <mxCell id="sfJVFUZ6SmEvr22V_r6v-9" value="" style="endArrow=none;html=1;rounded=0;exitX=0.5;exitY=1;exitDx=0;exitDy=0;entryX=0.5;entryY=0;entryDx=0;entryDy=0;" edge="1" parent="1" source="sfJVFUZ6SmEvr22V_r6v-3" target="sfJVFUZ6SmEvr22V_r6v-5">
          <mxGeometry width="50" height="50" relative="1" as="geometry">
            <mxPoint x="150" y="250" as="sourcePoint" />
            <mxPoint x="150" y="290" as="targetPoint" />
          </mxGeometry>
        </mxCell>
        <mxCell id="sfJVFUZ6SmEvr22V_r6v-18" value="6" style="edgeLabel;html=1;align=center;verticalAlign=middle;resizable=0;points=[];" vertex="1" connectable="0" parent="sfJVFUZ6SmEvr22V_r6v-9">
          <mxGeometry x="-0.1782" relative="1" as="geometry">
            <mxPoint as="offset" />
          </mxGeometry>
        </mxCell>
        <mxCell id="sfJVFUZ6SmEvr22V_r6v-10" value="" style="endArrow=none;html=1;rounded=0;exitX=1;exitY=0.5;exitDx=0;exitDy=0;entryX=0;entryY=0.5;entryDx=0;entryDy=0;" edge="1" parent="1" source="sfJVFUZ6SmEvr22V_r6v-4" target="sfJVFUZ6SmEvr22V_r6v-5">
          <mxGeometry width="50" height="50" relative="1" as="geometry">
            <mxPoint x="280" y="290" as="sourcePoint" />
            <mxPoint x="330" y="240" as="targetPoint" />
          </mxGeometry>
        </mxCell>
        <mxCell id="sfJVFUZ6SmEvr22V_r6v-19" value="2" style="edgeLabel;html=1;align=center;verticalAlign=middle;resizable=0;points=[];" vertex="1" connectable="0" parent="sfJVFUZ6SmEvr22V_r6v-10">
          <mxGeometry x="-0.0748" y="-1" relative="1" as="geometry">
            <mxPoint as="offset" />
          </mxGeometry>
        </mxCell>
        <mxCell id="sfJVFUZ6SmEvr22V_r6v-11" value="" style="endArrow=none;html=1;rounded=0;exitX=1;exitY=0.5;exitDx=0;exitDy=0;entryX=0;entryY=0.5;entryDx=0;entryDy=0;" edge="1" parent="1">
          <mxGeometry width="50" height="50" relative="1" as="geometry">
            <mxPoint x="160" y="219.74" as="sourcePoint" />
            <mxPoint x="280" y="219.74" as="targetPoint" />
          </mxGeometry>
        </mxCell>
        <mxCell id="sfJVFUZ6SmEvr22V_r6v-15" value="5" style="edgeLabel;html=1;align=center;verticalAlign=middle;resizable=0;points=[];" vertex="1" connectable="0" parent="sfJVFUZ6SmEvr22V_r6v-11">
          <mxGeometry x="-0.0235" y="-1" relative="1" as="geometry">
            <mxPoint as="offset" />
          </mxGeometry>
        </mxCell>
        <mxCell id="sfJVFUZ6SmEvr22V_r6v-12" value="" style="endArrow=none;html=1;rounded=0;exitX=1;exitY=1;exitDx=0;exitDy=0;entryX=0;entryY=0;entryDx=0;entryDy=0;" edge="1" parent="1" source="sfJVFUZ6SmEvr22V_r6v-2" target="sfJVFUZ6SmEvr22V_r6v-5">
          <mxGeometry width="50" height="50" relative="1" as="geometry">
            <mxPoint x="280" y="290" as="sourcePoint" />
            <mxPoint x="330" y="240" as="targetPoint" />
          </mxGeometry>
        </mxCell>
        <mxCell id="sfJVFUZ6SmEvr22V_r6v-17" value="3" style="edgeLabel;html=1;align=center;verticalAlign=middle;resizable=0;points=[];" vertex="1" connectable="0" parent="sfJVFUZ6SmEvr22V_r6v-12">
          <mxGeometry x="-0.095" y="1" relative="1" as="geometry">
            <mxPoint as="offset" />
          </mxGeometry>
        </mxCell>
      </root>
    </mxGraphModel>
  </diagram>
</mxfile>
